<?xml version="1.0" encoding="UTF-8" standalone="no"?>
<!-- Created with Inkscape (http://www.inkscape.org/) -->

<svg
   width="46.331409"
   height="30.82061"
   viewBox="0 0 12.258518 8.1546202"
   version="1.1"
   id="svg1"
   xml:space="preserve"
   xmlns="http://www.w3.org/2000/svg"
   xmlns:svg="http://www.w3.org/2000/svg"><defs
     id="defs1" /><g
     id="layer1"
     transform="translate(-0.35303258,-2.404982)"><g
       id="g9"
       transform="translate(0.21126634,0.6023955)"
       style="stroke-width:0.529167;stroke-dasharray:none"><g
         id="g10"
         transform="translate(-0.28509909,-0.31198234)"><path
           id="path1-1-5-1-2"
           style="fill:none;fill-opacity:1;stroke:#ffffff;stroke-width:0.296372;stroke-linejoin:bevel;stroke-dasharray:none;stroke-opacity:1"
           d="M 7.2520715,9.4250544 A 0.69594694,0.69594694 0 0 1 6.5561247,10.121002 0.69594694,0.69594694 0 0 1 5.8601773,9.4250544 0.69594694,0.69594694 0 0 1 6.5561247,8.7291081 0.69594694,0.69594694 0 0 1 7.2520715,9.4250544 Z" /><path
           style="fill:#ffffff;fill-opacity:1;stroke-width:0.296372;stroke-linejoin:bevel;paint-order:markers fill stroke"
           d="m 9.2928663,8.4552088 c -1.014e-4,0.00145 -7.281e-4,0.0028 0.00169,-0.013929 3.488e-4,-0.00241 7.841e-4,-0.00543 0.0014,-0.00892 0.00202,-0.012008 0.0064,-0.03417 0.014315,-0.055475 0.00319,-0.00856 0.00655,-0.015917 0.00988,-0.021714 0.00292,-0.0051 0.00549,-0.00803 0.00563,-0.00819 1.507e-4,-1.54e-4 -0.00229,0.00224 -0.00707,0.00442 -0.00527,0.00235 -0.010321,0.00314 -0.013487,0.00314 0.031902,2.555e-4 0.072299,0.00718 0.121435,0.024347 0.047611,0.016629 0.1008366,0.041955 0.1585488,0.07664 0.1128622,0.067829 0.2359087,0.1672679 0.3567075,0.2912317 0.1188274,0.1219415 0.2314884,0.2635576 0.3260184,0.4132981 0.09574,0.1516662 0.169866,0.3068399 0.214721,0.4544853 0.0097,0.031794 0.01298,0.049942 0.0138,0.058256 3.89e-4,0.00388 -1.64e-4,0.00211 5.23e-4,-0.00366 6.72e-4,-0.00554 0.0031,-0.020032 0.01311,-0.037337 0.0052,-0.00898 0.01227,-0.018413 0.02164,-0.027216 0.0095,-0.00887 0.02008,-0.016074 0.0313,-0.021429 0.01112,-0.00532 0.02169,-0.00831 0.03078,-0.00987 0.009,-0.00155 0.01659,-0.00177 0.02216,-0.00155 0.0114,4.622e-4 0.01594,0.00222 0.01673,0.00244 7.84e-4,2.517e-4 -0.0022,-7.272e-4 -0.0071,-0.0031 -0.0111,-0.00532 -0.02747,-0.014866 -0.04991,-0.029732 C 10.55326,9.5265262 10.527581,9.5082013 10.498739,9.48685 10.439394,9.442928 10.369341,9.3882306 10.294713,9.3316154 10.153862,9.2247702 9.9626808,9.084334 9.7674648,8.9876369 9.6736134,8.941154 9.5723915,8.9013781 9.4691822,8.8805456 9.4182496,8.870258 9.3657948,8.8643825 9.3127466,8.8649479 c -0.052602,5.601e-4 -0.1059072,0.00748 -0.1586776,0.022829 -0.051997,0.015121 -0.097055,0.038956 -0.1364629,0.067036 -0.038482,0.027415 -0.07146,0.058799 -0.1001514,0.089474 -0.057599,0.061582 -0.1025638,0.1232244 -0.1465538,0.1711251 -0.02233,0.024311 -0.043539,0.044643 -0.065146,0.061393 -0.021618,0.016762 -0.04335,0.02971 -0.066392,0.039122 -0.023343,0.00953 -0.049931,0.01623 -0.081577,0.01858 -0.032843,0.00244 -0.072303,2.672e-4 -0.1200971,-0.00931 C 8.3627865,9.3102286 8.3044028,9.2835783 8.2587743,9.2540124 8.2064858,9.2201342 8.1674261,9.1801033 8.1385444,9.1428028 8.100846,9.0941139 8.0778285,9.0466112 8.0646009,9.0144922 c -0.00375,-0.0092 -0.00694,-0.01756 -0.00958,-0.024943 -0.016388,-0.045929 -0.02126,-0.079242 -0.022263,-0.085926 L 7.8642784,8.7790764 7.7396415,8.9475505 c 0.00235,0.015797 0.010731,0.070218 0.036242,0.1416879 0.00409,0.011385 0.00891,0.024223 0.014674,0.038202 0.019933,0.048412 0.055021,0.1211746 0.1136457,0.1968908 0.045181,0.058356 0.1079592,0.1231257 0.1934109,0.1784938 0.075333,0.048811 0.1684599,0.090394 0.2820002,0.113082 0.070033,0.01399 0.1366293,0.018923 0.2000859,0.014212 C 8.6417362,9.625569 8.6988038,9.61185 8.7514594,9.590343 8.8029354,9.569313 8.8477534,9.541787 8.8873404,9.51109 8.9261534,9.480992 8.9596854,9.448056 8.9891869,9.41594 9.0479938,9.351909 9.0935,9.2899925 9.1338986,9.2468022 c 0.0206,-0.022016 0.038645,-0.038423 0.055687,-0.050562 0.016741,-0.011928 0.032036,-0.0194 0.04722,-0.023812 0.024151,-0.00698 0.050423,-0.010753 0.079132,-0.011086 0.029135,-3.137e-4 0.060675,0.00288 0.094603,0.00976 0.069808,0.01409 0.1458027,0.042736 0.2253759,0.082157 0.1674086,0.082922 0.3387924,0.2076474 0.4796785,0.3145224 0.07262,0.055085 0.142523,0.1097385 0.206831,0.1573355 0.03076,0.02277 0.06107,0.044498 0.08955,0.063355 0.02746,0.018181 0.05631,0.035796 0.0845,0.049421 0.01409,0.00676 0.02984,0.013547 0.04664,0.018868 0.01626,0.0051 0.03716,0.010199 0.06081,0.011141 0.01206,4.9e-4 0.02572,-3.77e-5 0.04038,-0.00255 0.01472,-0.00255 0.03049,-0.00709 0.04637,-0.014711 0.01595,-0.00765 0.03088,-0.017715 0.04417,-0.030231 0.01319,-0.012416 0.02364,-0.026129 0.03173,-0.04012 0.01578,-0.027271 0.02211,-0.054564 0.02468,-0.076049 0.0026,-0.021595 0.0019,-0.042315 1.24e-4,-0.060595 C 10.78788,9.6078611 10.77851,9.5688391 10.76622,9.5283858 10.712172,9.3504823 10.625441,9.1711869 10.518535,9.0018422 10.412711,8.8342109 10.287118,8.676351 10.154165,8.5399138 10.019618,8.4018408 9.8769642,8.2850917 9.737865,8.2014944 9.6664058,8.158548 9.5947556,8.1236609 9.5243536,8.099077 9.4521506,8.0738623 9.379124,8.0587468 9.3075855,8.0581748 c -0.040101,-3.21e-4 -0.077322,0.00802 -0.1105733,0.022985 -0.034383,0.01548 -0.061632,0.036724 -0.0827,0.058179 -0.022251,0.022661 -0.038852,0.0468 -0.051162,0.06823 -0.013482,0.023466 -0.023406,0.046475 -0.030698,0.066094 -0.017451,0.046962 -0.025506,0.090274 -0.028709,0.109192 -0.00106,0.00623 -0.00191,0.011678 -0.00252,0.01613 -0.00442,0.030692 -0.00392,0.034467 -0.00404,0.035946 L 9.1348787,8.5929156 Z M 7.90541,8.1260596 c 9.522e-4,-0.0069 0.00257,-0.01208 0.00241,-0.011616 -9.92e-5,2.885e-4 -9.521e-4,0.0028 -0.00375,0.00906 -0.00252,0.0057 -0.00612,0.01328 -0.0123,0.025775 -0.00347,0.00705 -0.00671,0.013476 -0.011733,0.023556 -0.012271,0.024571 -0.048283,0.095176 -0.078305,0.1759055 -0.040409,0.1086753 -0.1039805,0.3185341 -0.062068,0.5987845 0.00431,0.027648 0.00931,0.05962 0.014887,0.095349 L 8.0012051,8.910882 C 7.7755537,8.7036013 7.5377235,8.5259776 7.2885324,8.3929988 7.0485924,8.2649572 6.7964015,8.1774052 6.533451,8.1459287 6.2784648,8.1154048 6.0160285,8.1379645 5.7484518,8.2247211 5.4888932,8.3088797 5.2267365,8.452782 4.9631621,8.6635316 c -0.0018,0.00145 -0.0036,0.00286 -0.0054,0.00431 0,0 -0.00481,0.00464 -0.00481,0.00464 C 4.634791,8.9786928 4.3591714,9.1864133 4.1253861,9.3249018 3.8964474,9.460519 3.711062,9.527719 3.5679743,9.5580387 c -0.140286,0.029721 -0.239396,0.023912 -0.2994897,0.013126 -0.059485,-0.010642 -0.082021,-0.026484 -0.068915,-0.018857 0.1067653,0.062158 0.09506,0.2199925 -0.019707,0.2657226 0,0 5.23e-5,-2.11e-5 5.23e-5,-2.11e-5 C 3.3775761,9.7391666 3.5511826,9.6063818 3.6973181,9.4548519 3.8424255,9.3043886 3.9637504,9.1320285 4.0574775,8.9667667 4.104181,8.8844168 4.1443615,8.803247 4.1773635,8.726738 c 0.03283,-0.076107 0.059015,-0.1486753 0.077363,-0.2139868 0.00917,-0.032647 0.016598,-0.064241 0.021875,-0.094126 0.00522,-0.029571 0.00867,-0.059321 0.0091,-0.087894 4.214e-4,-0.027415 -0.00178,-0.060386 -0.012124,-0.093215 -0.00533,-0.016937 -0.01359,-0.036236 -0.026687,-0.055223 -0.013373,-0.019383 -0.031795,-0.038376 -0.056252,-0.053056 -0.029617,-0.017776 -0.063759,-0.026569 -0.098278,-0.02531 -0.012199,0.0056 -0.024455,0.011019 -0.036767,0.016343 -0.152609,0.065955 -0.3378345,0.122855 -0.5348931,0.1658187 -0.1966999,0.042885 -0.4018278,0.071152 -0.5933267,0.081229 -0.192874,0.010148 -0.3663367,0.00157 -0.5015828,-0.026195 -0.067622,-0.013873 -0.1219004,-0.031767 -0.1629595,-0.052036 -0.041389,-0.020431 -0.064077,-0.040644 -0.075786,-0.056519 1.543e-4,2.089e-4 -0.00163,-0.0018 -0.0033,-0.010676 -0.00176,-0.00939 -0.00256,-0.023551 -6.553e-4,-0.043075 0.00394,-0.040174 0.017857,-0.088615 0.037511,-0.1370218 0.00962,-0.023691 0.020031,-0.04596 0.030104,-0.065487 0.010199,-0.01977 0.019591,-0.035856 0.026878,-0.04718 0.00367,-0.00571 0.00633,-0.00947 0.00786,-0.011504 7.45e-4,-0.00101 9.074e-4,-0.00118 5.021e-4,-6.72e-4 -2.883e-4,3.393e-4 -0.00192,0.00224 -0.00477,0.00504 -0.00221,0.00213 -0.00898,0.00859 -0.019664,0.015396 -0.00552,0.00353 -0.014696,0.00881 -0.027014,0.013324 -0.011934,0.00437 -0.032161,0.00999 -0.057743,0.0086 -0.013218,-7.28e-4 -0.02783,-0.0033 -0.0429,-0.00889 -0.015204,-0.00563 -0.029314,-0.013722 -0.041779,-0.023892 -0.012355,-0.010077 -0.021892,-0.021209 -0.029109,-0.031997 -0.00714,-0.010665 -0.011966,-0.020924 -0.015258,-0.029672 -0.00636,-0.016903 -0.00819,-0.031386 -0.0088,-0.040034 -6.497e-4,-0.00913 -2.658e-4,-0.016495 1.39e-4,-0.021148 -0.00276,0.031733 3.214e-4,0.063028 0.010066,0.092633 0.00996,0.030261 0.025559,0.054742 0.042776,0.073678 0.017223,0.018947 0.035201,0.031448 0.049428,0.039468 0.014572,0.00821 0.026996,0.012742 0.034453,0.015071 l 0.036788,0.011493 0.00741,-0.00476 c 0.019083,-0.012243 0.037547,-0.024094 0.05526,-0.035458 l 0.080029,-0.023466 c 0.017713,-0.011364 0.036176,-0.023215 0.05526,-0.035458 l 0.027535,-0.01767 0.017538,-0.027622 C 2.5844323,7.6886375 2.7324342,7.5529861 2.8828437,7.463246 3.0296877,7.375634 3.1808224,7.3308453 3.3193277,7.311417 3.45543,7.292324 3.5768187,7.297948 3.6653614,7.308897 3.7513654,7.31955 3.8032252,7.335131 3.7969766,7.333282 L 3.9559911,7.282215 c 6e-5,-7.72e-5 0.1773988,-0.2278917 0.3578855,-0.4617112 0.088536,-0.1146968 0.1777356,-0.2307301 0.244019,-0.3180574 0.032861,-0.043293 0.060563,-0.080155 0.079857,-0.1064671 0.00484,-0.00661 0.00928,-0.012708 0.013199,-0.018185 0.00387,-0.00538 0.00752,-0.010576 0.010698,-0.015245 0.0016,-0.00235 0.00328,-0.00488 0.00493,-0.00741 0.00154,-0.00235 0.00366,-0.00573 0.00588,-0.00956 0.00112,-0.00196 0.00268,-0.0047 0.00439,-0.00806 0.00146,-0.00286 0.00437,-0.00875 0.00723,-0.016421 0.00145,-0.00392 0.00361,-0.010177 0.00548,-0.018113 0.00163,-0.00691 0.00458,-0.02144 0.00384,-0.040023 -3.894e-4,-0.00976 -0.00188,-0.023266 -0.00673,-0.038651 -0.00496,-0.015743 -0.014027,-0.034842 -0.029285,-0.052485 -0.015943,-0.018438 -0.035786,-0.032215 -0.057369,-0.040801 -0.020808,-0.00828 -0.040042,-0.010498 -0.054827,-0.010498 -0.01464,5e-7 -0.028292,0.00218 -0.040595,0.00565 -0.012188,0.00347 -0.022653,0.00813 -0.03132,0.012921 -0.016857,0.00933 -0.028599,0.020112 -0.035784,0.027673 -0.013671,0.014383 -0.021246,0.028199 -0.024241,0.033929 -0.00368,0.00705 -0.00613,0.013083 -0.00754,0.016791 -0.00152,0.00398 -0.00265,0.00745 -0.00345,0.010033 -0.00156,0.00504 -0.00268,0.00951 -0.00341,0.012607 -7.841e-4,0.0033 -0.00145,0.00645 -0.00202,0.00923 -0.00112,0.00554 -0.00214,0.011342 -0.00309,0.01702 -9.634e-4,0.00579 -0.00194,0.012104 -0.00294,0.018774 -0.0039,0.026301 -0.00859,0.062546 -0.013704,0.1045848 -0.010254,0.084279 -0.022735,0.1961021 -0.034809,0.3076021 -0.024133,0.2228566 -0.046744,0.4454092 -0.046761,0.4455722 0,0 -0.039488,0.3924389 -0.039488,0.3924389 C 4.348497,7.4439112 4.4435357,7.3550807 4.5410268,7.2689882 4.9364232,6.919821 5.3037044,6.6761359 5.6448027,6.5137422 5.9860889,6.3512595 6.3020786,6.269702 6.5955675,6.2456122 c 0.2941694,-0.024145 0.5693036,0.00916 0.8284344,0.080125 0.2602856,0.071285 0.5052908,0.1808256 0.737606,0.3094817 0.233242,0.1291697 0.4522589,0.2767825 0.6605789,0.4232119 0.2071808,0.145628 0.407843,0.2930857 0.5956617,0.4146036 0.094945,0.061429 0.1887433,0.117667 0.2812015,0.1651941 0.092609,0.047606 0.1855262,0.087331 0.2784868,0.1147277 0.093368,0.027516 0.1882172,0.043019 0.2837692,0.040818 0.0964,-0.00224 0.191215,-0.022437 0.28334,-0.063892 0.0022,-0.00101 0.0045,-0.00207 0.0068,-0.00308 0.0022,-0.00123 0.0044,-0.00246 0.0065,-0.00369 0.0821,-0.047404 0.15097,-0.1090689 0.205876,-0.1823399 0.05493,-0.0733 0.09464,-0.1565191 0.12056,-0.2459708 0.05183,-0.1788536 0.0491,-0.3839667 0.0027,-0.5964056 C 10.840149,6.4836368 10.747471,6.2556403 10.612816,6.0279211 10.476946,5.7980977 10.297437,5.5670478 10.075984,5.3475149 9.6264378,4.9018665 9.0057919,4.5051219 8.2222371,4.2554259 7.4219429,4.0003955 6.4607269,3.9013877 5.3450568,4.0482683 4.3179896,4.1834842 3.3818553,4.5561399 2.5806476,5.0999395 1.9530318,5.5259179 1.4118223,6.0537812 0.96453778,6.655532 1.2566269,5.699989 1.7886258,4.8765057 2.4325866,4.2320255 3.3821084,3.2817378 4.558506,2.7236355 5.7253181,2.5150337 c 1.5382154,-0.275001 2.8257837,0.030418 3.7877821,0.5019213 1.1559068,0.5665429 1.9240518,1.4030505 2.3497038,2.109272 0.265021,0.4397106 0.413667,0.8502286 0.480718,1.1996512 0.08416,0.4386032 0.04201,0.7836528 -0.04884,1.0387051 -0.04678,0.1313372 -0.107078,0.2411799 -0.172224,0.3328272 -0.01847,0.025976 -0.03756,0.050821 -0.05717,0.074593 -0.112473,0.1363291 -0.243687,0.239217 -0.377172,0.3173776 -0.180473,0.1056734 -0.372127,0.1702706 -0.545237,0.2108073 -0.272971,0.063921 -0.538653,0.076878 -0.730066,0.076878 l -0.148177,0.1481848 0.148186,0.1481858 c 0.203077,0 0.493842,-0.013542 0.797637,-0.084684 0.192715,-0.045125 0.414253,-0.1188022 0.627419,-0.2436185 0.158261,-0.092667 0.317852,-0.2170364 0.456031,-0.3845245 0.02405,-0.029151 0.04747,-0.059629 0.07012,-0.091491 0.08011,-0.1127118 0.153433,-0.246721 0.209844,-0.4050833 C 12.683944,7.1550406 12.727845,6.7560261 12.63459,6.2700263 12.560445,5.8836754 12.398272,5.4405159 12.116635,4.9732385 11.664675,4.2233671 10.855727,3.3449598 9.6435355,2.7508302 8.6319155,2.2550065 7.2806404,1.9359044 5.6731605,2.2232884 4.4508039,2.4418204 3.2181819,3.0264955 2.2229362,4.022544 1.3690359,4.8771331 0.69983058,6.0351784 0.49210236,7.3985387 0.45360814,7.6511839 0.43181516,7.9060923 0.42686531,8.161605 0.52839069,7.9335974 0.64188173,7.7111081 0.76686467,7.4950658 1.2619048,6.6393533 1.9285592,5.9007167 2.747086,5.3451618 3.5114019,4.8264016 4.4047261,4.4709936 5.3837402,4.3421039 c 1.0762256,-0.1416877 1.9932144,-0.04499 2.7485109,0.1957016 0.740067,0.2358378 1.319728,0.6084334 1.7350815,1.0201859 0.2047054,0.2029299 0.3682284,0.4141623 0.4903984,0.6207697 0.121378,0.2052665 0.200716,0.4039012 0.239803,0.5828612 0.03897,0.1784335 0.03673,0.3314746 0.0022,0.4506789 -0.01705,0.058844 -0.04181,0.1090146 -0.07307,0.1507313 -0.02961,0.039513 -0.06617,0.07296 -0.110488,0.099626 -0.05231,0.022487 -0.105684,0.033554 -0.161669,0.034842 -0.05888,0.00134 -0.122789,-0.00807 -0.19316,-0.02881 C 9.9909615,7.447951 9.9156846,7.4163631 9.834555,7.374659 9.753678,7.333085 9.6687561,7.2823851 9.5788563,7.2242207 9.3973755,7.106804 9.207362,6.9669185 8.9926297,6.8159823 8.7817977,6.6677875 8.5524997,6.5129206 8.3052032,6.3759675 8.0584163,6.2392968 7.7912446,6.1190435 7.5022996,6.0399089 7.2136755,5.9608627 6.9037559,5.922966 6.5713398,5.9502504 6.2396121,5.9774811 5.8888235,6.0693439 5.5174224,6.2461639 5.2329866,6.3815812 4.9369718,6.5665692 4.6282599,6.8099525 c 0.00285,-0.026631 0.00575,-0.053655 0.00867,-0.080666 0.012041,-0.1111925 0.024355,-0.2214693 0.034362,-0.3037175 0.00504,-0.041423 0.00936,-0.074594 0.012662,-0.096873 8.121e-4,-0.00549 0.00152,-0.010033 0.00213,-0.013682 6.272e-4,-0.00375 0.00104,-0.00598 0.00124,-0.00696 -2.904e-4,0.00123 -8.568e-4,0.00358 -0.0019,0.00696 -5.373e-4,0.00174 -0.00142,0.00448 -0.00269,0.00782 -0.00118,0.00308 -0.00338,0.00857 -0.00684,0.015194 -0.00277,0.00532 -0.010132,0.018796 -0.023599,0.032966 -0.00708,0.00745 -0.018724,0.018152 -0.035477,0.027426 -0.00862,0.00476 -0.019041,0.00941 -0.031182,0.012865 -0.012255,0.00347 -0.025861,0.00564 -0.040442,0.00564 -0.01475,0 -0.033945,-0.00224 -0.054716,-0.010476 C 4.4689289,6.397879 4.4491159,6.384119 4.4331969,6.36571 4.4179619,6.34809 4.4089119,6.329032 4.4039719,6.313344 c -0.00483,-0.015357 -0.00632,-0.028821 -0.00671,-0.038517 -7.392e-4,-0.018477 0.00221,-0.03286 0.00379,-0.039603 0.00183,-0.00777 0.00394,-0.013856 0.0053,-0.01753 0.00269,-0.00724 0.00535,-0.012562 0.00647,-0.01477 0.00136,-0.00269 0.00251,-0.0047 0.00312,-0.00575 0.00141,-0.00241 0.00182,-0.00303 0.00185,-0.00308 -0.00245,0.00364 -0.00466,0.00677 -0.0078,0.011168 -0.00309,0.00431 -0.00684,0.00949 -0.01124,0.01548 -0.017766,0.024222 -0.04428,0.059519 -0.076923,0.102526 C 4.2563204,6.4095886 4.1677093,6.524859 4.0792828,6.6394153 3.8992896,6.8725947 3.7220679,7.1002607 3.722128,7.1001835 l 0.062089,-0.07977 0.096926,0.028703 C 3.8748906,7.0472653 3.8077693,7.0279128 3.7018111,7.0147839 3.5936335,7.0013811 3.445491,6.9944425 3.2781716,7.0179212 3.1066068,7.0419874 2.917025,7.097749 2.7310051,7.2087356 2.5469201,7.3185672 2.3724442,7.4788571 2.2235008,7.7047388 c -0.00962,0.00617 -0.019062,0.012232 -0.028297,0.018157 l 0.080029,-0.023466 c -0.017713,0.011364 -0.036176,0.023215 -0.05526,0.035458 l 0.044192,0.00674 c 0.00753,0.00235 0.015175,0.00538 0.022713,0.00964 0.00737,0.00415 0.016091,0.010288 0.024316,0.019334 0.00841,0.00926 0.015333,0.020538 0.019447,0.033039 0.00401,0.012176 0.00404,0.021507 0.00367,0.02569 5.533e-4,-0.00636 9.632e-4,-0.015218 2.228e-4,-0.025624 -7.057e-4,-0.00992 -0.00275,-0.025466 -0.00942,-0.043226 -0.00345,-0.00918 -0.00847,-0.019804 -0.015824,-0.030799 -0.00744,-0.011106 -0.017215,-0.022509 -0.029841,-0.032815 -0.012737,-0.010388 -0.027144,-0.018656 -0.042674,-0.024402 -0.015395,-0.0057 -0.030359,-0.00837 -0.043952,-0.0091 -0.026335,-0.0014 -0.04742,0.00437 -0.060309,0.00907 -0.013272,0.00488 -0.023505,0.010698 -0.030172,0.014948 -0.012978,0.00827 -0.022429,0.016937 -0.027643,0.022 -0.00586,0.0057 -0.010842,0.011241 -0.01478,0.015889 -0.00405,0.00476 -0.00784,0.00959 -0.011308,0.014198 -0.00687,0.00915 -0.013688,0.019088 -0.020256,0.029298 -0.013087,0.020341 -0.027137,0.044732 -0.041033,0.07168 -0.013875,0.0269 -0.028086,0.057294 -0.041301,0.089844 -0.025628,0.063118 -0.050156,0.1407951 -0.057873,0.2196442 -0.00388,0.039631 -0.00386,0.082921 0.00432,0.1265569 0.00823,0.043904 0.025115,0.090011 0.056097,0.1320098 0.047692,0.064649 0.1130581,0.111756 0.183082,0.1463269 0.070075,0.034596 0.1501103,0.059285 0.234611,0.076616 0.168232,0.034506 0.3687744,0.042772 0.576706,0.031834 0.2085378,-0.010973 0.4295804,-0.04155 0.6408857,-0.087621 0.2110719,-0.046015 0.4152852,-0.1081155 0.5893254,-0.1833257 l -0.1350429,-0.00897 c -0.016357,-0.00982 -0.027766,-0.022011 -0.03519,-0.032775 -0.00715,-0.010365 -0.010521,-0.019211 -0.012017,-0.023971 -0.00267,-0.00847 -0.0014,-0.010221 -0.00154,-4.245e-4 -1.332e-4,0.00867 -0.00132,0.022156 -0.00462,0.040924 -0.00327,0.018505 -0.00829,0.040415 -0.015343,0.065497 -0.014148,0.050362 -0.035542,0.1103892 -0.06417,0.1767578 C 3.876617,8.675751 3.8412532,8.7473089 3.7996991,8.8205774 3.715836,8.9684266 3.6087735,9.1197513 3.4840017,9.2491283 3.3577362,9.3800541 3.2179471,9.4837752 3.0701203,9.5427417 l -0.2824868,0.1126796 0.2628303,0.153022 c 0.01349,0.00787 0.068457,0.036993 0.1656774,0.054442 C 3.315,9.880623 3.4527629,9.8854121 3.62942,9.8479864 3.8087748,9.809972 4.0241879,9.7293305 4.2764472,9.5798981 4.5324397,9.4282537 4.824399,9.2069576 5.1534905,8.8908322 5.3917017,8.7012227 5.6207645,8.577685 5.8398792,8.5066401 6.0663528,8.4332088 6.2855634,8.4147365 6.498243,8.4401961 6.7185541,8.4665704 6.9355737,8.5405638 7.1490184,8.6544664 7.3711538,8.773007 7.5887984,8.9344637 7.8007297,9.1291418 L 8.1127492,9.4157589 8.0473883,8.9971496 c -0.0056,-0.03573 -0.010565,-0.067701 -0.014741,-0.094407 -0.031571,-0.2111415 0.015934,-0.3674573 0.046888,-0.4507129 0.023602,-0.063467 0.052384,-0.1201895 0.065672,-0.1468069 0.00481,-0.00969 0.00845,-0.016908 0.012282,-0.024666 0.00694,-0.014052 0.012445,-0.02554 0.017251,-0.036315 0.00549,-0.012265 0.0098,-0.023075 0.013313,-0.033285 0.00564,-0.016394 0.00918,-0.031235 0.011086,-0.045393 L 8.0720272,7.9989509 Z"
           id="path2" /></g></g></g></svg>
